Coordinates
version=1
nRows=9
nColumns=63
inDegrees=yes

Units are S.I. units (second, meters, Newtons, ...)
If the header above contains a line with 'inDegrees', this indicates whether rotational values are in degrees (yes) or radians (no).

endheader
time	pelvis_tilt	pelvis_list	pelvis_rotation	pelvis_tx	pelvis_ty	pelvis_tz	hip_flexion_r	hip_adduction_r	hip_rotation_r	knee_angle_r	knee_angle_r_beta	ankle_angle_r	subtalar_angle_r	mtp_angle_r	hip_flexion_l	hip_adduction_l	hip_rotation_l	knee_angle_l	knee_angle_l_beta	ankle_angle_l	subtalar_angle_l	mtp_angle_l	L5_S1_Flex_Ext	L5_S1_Lat_Bending	L5_S1_axial_rotation	L4_L5_Flex_Ext	L4_L5_Lat_Bending	L4_L5_axial_rotation	L3_L4_Flex_Ext	L3_L4_Lat_Bending	L3_L4_axial_rotation	L2_L3_Flex_Ext	L2_L3_Lat_Bending	L2_L3_axial_rotation	L1_L2_Flex_Ext	L1_L2_Lat_Bending	L1_L2_axial_rotation	L1_T12_Flex_Ext	L1_T12_Lat_Bending	L1_T12_axial_rotation	Abs_r3	Abs_r2	Abs_r1	Abs_t1	Abs_t2	neck_flexion	neck_bending	neck_rotation	arm_flex_r	arm_add_r	arm_rot_r	elbow_flex_r	pro_sup_r	wrist_flex_r	wrist_dev_r	arm_flex_l	arm_add_l	arm_rot_l	elbow_flex_l	pro_sup_l	wrist_flex_l	wrist_dev_l
      8.51700000	    -44.34231667	     -0.68148166	     -1.96076824	     -0.24002369	      1.04143933	     -0.01803552	     84.40442880	     -6.20974975	     -2.18193489	     80.55286642	      1.40591274	      4.33241674	      0.56582553	      0.00000000	    110.49836137	     -6.84612538	      0.42623468	     86.31979950	      1.50656471	     27.08171012	      5.86031250	      0.00000000	     -0.05116783	      0.20720928	      0.04720343	     -0.09502377	      0.27558835	      0.05015364	     -0.08406363	      0.50380865	      0.05015364	     -0.05847971	      0.50380865	      0.04130300	     -0.04751445	      0.42254117	      0.03835279	     -0.02923730	      0.32096718	      0.03540257	     -0.36548668	      2.34399286	      0.26253131	      0.00000000	      0.00000000	     -0.00000000	      0.00000000	      0.00000000	     76.44334797	    -13.03468695	     33.70865570	     28.97937371	     41.12155459	      0.00000000	      5.00000014	     75.74137481	     -7.14431592	     22.42622439	     30.11928448	     48.36659453	      0.00000000	      5.00000014
      8.52500000	    -44.38214699	     -0.87231577	     -2.50122800	     -0.23982341	      1.04132381	     -0.01756784	     85.11074718	     -5.70148292	     -2.06461381	     82.43718227	      1.43880026	      4.86205018	      0.52191723	      0.00000000	    109.43949986	     -6.96726823	      1.01082306	     84.23937592	      1.47025447	     26.59137936	      5.67417288	      0.00000000	     -0.04388855	      0.24242954	      0.15783866	     -0.08150543	      0.32243129	      0.16770357	     -0.07210451	      0.58944318	      0.16770357	     -0.05016023	      0.58944318	      0.13810883	     -0.04075491	      0.49436232	      0.12824391	     -0.02507792	      0.37552336	      0.11837899	     -0.31349155	      2.74241143	      0.87785126	      0.00000000	      0.00000000	     -0.00000000	      0.00000000	      0.00000000	     76.45051718	    -13.06336722	     33.57177949	     29.02190783	     41.08554960	      0.00000000	      5.00000014	     75.59508268	     -7.04819922	     22.41209055	     30.15981164	     48.36717839	      0.00000000	      5.00000014
      8.53300000	    -44.36371421	     -0.89386007	     -2.85779078	     -0.23952152	      1.04135428	     -0.01718990	     85.81379549	     -5.42187600	     -1.82961719	     84.35317466	      1.47224063	      5.48739330	      0.61003557	      0.00000000	    108.16163733	     -7.00146848	      1.21498287	     82.04472538	      1.43195059	     25.99506334	      5.17856726	      0.00000000	     -0.04475201	      0.25110771	      0.23758933	     -0.08310896	      0.33397326	      0.25243867	     -0.07352308	      0.61054329	      0.25243867	     -0.05114707	      0.61054329	      0.20789067	     -0.04155672	      0.51205884	      0.19304133	     -0.02557130	      0.38896584	      0.17819200	     -0.31965913	      2.84058065	      1.32140059	      0.00000000	      0.00000000	     -0.00000000	      0.00000000	      0.00000000	     76.31257311	    -13.14442923	     33.39995963	     29.19413618	     41.03546068	      0.00000000	      5.00000014	     75.51105927	     -6.89459625	     22.30722563	     30.14775806	     48.35465101	      0.00000000	      5.00000014
      8.54200000	    -44.33186047	     -0.60250472	     -2.99776530	     -0.23928468	      1.04134729	     -0.01688866	     86.65714012	     -5.45804010	     -1.33854715	     86.41602026	      1.50824408	      6.24205193	      1.07376648	      0.00000000	    106.82312793	     -7.03242142	      0.73901243	     79.92563389	      1.39496547	     24.67285630	      4.17024661	      0.00000000	     -0.04625005	      0.21741409	      0.26983236	     -0.08589097	      0.28916073	      0.28669688	     -0.07598421	      0.52862061	      0.28669688	     -0.05285918	      0.52862061	      0.23610331	     -0.04294780	      0.44335080	      0.21923879	     -0.02642728	      0.33677442	      0.20237427	     -0.33035948	      2.45943162	      1.50072662	      0.00000000	      0.00000000	     -0.00000000	      0.00000000	      0.00000000	     76.08833927	    -13.18973743	     32.95612470	     29.62460518	     40.90933606	      0.00000000	      5.00000014	     75.46625931	     -6.75903367	     21.99855809	     30.02005051	     48.31863115	      0.00000000	      5.00000014
      8.55000000	    -44.30178722	     -0.83214469	     -3.56400216	     -0.23892860	      1.04133871	     -0.01625900	     87.37203368	     -4.98041327	     -1.42184777	     88.31656495	      1.54141484	      6.64465326	      1.03005424	      0.00000000	    105.62631693	     -7.41732267	      0.96537143	     78.05980785	      1.36240066	     23.64479283	      4.25845697	      0.00000000	     -0.04841504	      0.25546817	      0.37795697	     -0.08991157	      0.33977266	      0.40157928	     -0.07954107	      0.62114530	      0.40157928	     -0.05533355	      0.62114530	      0.33071235	     -0.04495821	      0.52095068	      0.30709004	     -0.02766435	      0.39572019	      0.28346773	     -0.34582379	      2.88990699	      2.10208329	      0.00000000	      0.00000000	     -0.00000000	      0.00000000	      0.00000000	     76.03563995	    -13.24664934	     32.88993809	     29.67397968	     40.89102525	      0.00000000	      5.00000014	     75.34890134	     -6.69714889	     21.97824924	     30.07356893	     48.31649853	      0.00000000	      5.00000014
      8.55800000	    -44.32663759	     -0.80483046	     -3.94428980	     -0.23874294	      1.04153423	     -0.01585421	     88.23601063	     -4.70812348	     -1.21549005	     90.17108739	      1.57378237	      7.00513304	      1.02526695	      0.00000000	    104.36534976	     -7.66792490	      0.85708669	     76.03866553	      1.32712507	     22.15738279	      4.24673607	      0.00000000	     -0.04580301	      0.26014917	      0.47235756	     -0.08506077	      0.34599840	      0.50187991	     -0.07524976	      0.63252670	      0.50187991	     -0.05234826	      0.63252670	      0.41331287	     -0.04253267	      0.53049619	      0.38379052	     -0.02617184	      0.40297107	      0.35426817	     -0.32716631	      2.94285947	      2.62711105	      0.00000000	      0.00000000	     -0.00000000	      0.00000000	      0.00000000	     75.94667436	    -13.45487544	     32.78661619	     29.86667830	     40.86252137	      0.00000000	      5.00000014	     75.23427184	     -6.49372035	     21.91430205	     30.12044323	     48.30656601	      0.00000000	      5.00000014
      8.56700000	    -44.23891452	     -0.06071690	     -3.93956600	     -0.23835065	      1.04162931	     -0.01526952	     89.29932373	     -4.90695648	     -0.29527547	     92.34547224	      1.61173254	      7.32001131	      1.34619639	      0.00000000	    102.89001487	     -7.77075481	     -0.44148407	     74.06141764	      1.29261559	     19.91656223	      2.88617024	      0.00000000	     -0.04733926	      0.15752571	      0.47696218	     -0.08791375	      0.20950920	      0.50677232	     -0.07777368	      0.38300802	      0.50677232	     -0.05410404	      0.38300802	      0.41734191	     -0.04395924	      0.32122644	      0.38753177	     -0.02704966	      0.24400733	      0.35772164	     -0.33813963	      1.78196238	      2.65272056	      0.00000000	      0.00000000	     -0.00000000	      0.00000000	      0.00000000	     75.39379215	    -13.50226495	     32.11272779	     30.47441280	     40.68076139	      0.00000000	      5.00000014	     75.28534913	     -6.35883515	     21.58435425	     29.91264352	     48.27616448	      0.00000000	      5.00000014
      8.57500000	    -44.22158787	     -0.07230334	     -4.33200047	     -0.23800842	      1.04178254	     -0.01459380	     90.17995831	     -4.61840166	     -0.20116813	     94.21514428	      1.64436447	      7.60479339	      1.31819687	      0.00000000	    101.66400732	     -8.16176041	     -0.69827903	     72.24213339	      1.26086309	     18.32653051	      3.02860950	      0.00000000	     -0.04558440	      0.16295513	      0.55971449	     -0.08465480	      0.21673033	      0.59469665	     -0.07489062	      0.39620911	      0.59469665	     -0.05209842	      0.39620911	      0.48975018	     -0.04232968	      0.33229811	      0.45476802	     -0.02604693	      0.25241750	      0.41978587	     -0.32560484	      1.84338105	      3.11296408	      0.00000000	      0.00000000	     -0.00000000	      0.00000000	      0.00000000	     75.23519446	    -13.60999252	     31.92447695	     30.65692395	     40.63028471	      0.00000000	      5.00000014	     75.16599147	     -6.24906517	     21.55161929	     29.93131308	     48.27742588	      0.00000000	      5.00000014
      8.58300000	    -44.15950179	      0.41216658	     -4.44026351	     -0.23771810	      1.04173063	     -0.01397963	     91.27940908	     -4.64232041	      0.43628074	     96.30454639	      1.68083142	      7.84873018	      1.33837828	      0.00000000	    100.35092236	     -8.38387939	     -1.69861080	     70.45998107	      1.22975866	     16.64080023	      2.53366971	      0.00000000	     -0.04571215	      0.09914899	      0.57778700	     -0.08489204	      0.13186816	      0.61389869	     -0.07510050	      0.24107086	      0.61389869	     -0.05224442	      0.24107086	      0.50556363	     -0.04244831	      0.20218462	      0.46945194	     -0.02611992	      0.15358179	      0.43334025	     -0.32651734	      1.12159321	      3.21347798	      0.00000000	      0.00000000	     -0.00000000	      0.00000000	      0.00000000	     74.91948361	    -13.59251802	     31.46762902	     31.02910291	     40.50826993	      0.00000000	      5.00000014	     75.19796760	     -6.19954066	     21.45237822	     29.79394071	     48.28316449	      0.00000000	      5.00000014
